<mxfile host="app.diagrams.net" agent="Mozilla/5.0 (Macintosh; Intel Mac OS X 10_15_7) AppleWebKit/605.1.15 (KHTML, like Gecko) Version/18.0.1 Safari/605.1.15" version="24.8.0">
  <diagram name="Страница — 1" id="EjCSLHkqZ8Gr7GZIRiUM">
    <mxGraphModel dx="2093" dy="1782" grid="1" gridSize="10" guides="1" tooltips="1" connect="1" arrows="1" fold="1" page="1" pageScale="1" pageWidth="827" pageHeight="1169" background="#D9D9D9" math="0" shadow="0">
      <root>
        <mxCell id="0" />
        <mxCell id="1" parent="0" />
        <mxCell id="ssqMvPT_EmWD87mpk3u1-13" value="" style="rounded=0;whiteSpace=wrap;html=1;labelBackgroundColor=none;" parent="1" vertex="1">
          <mxGeometry x="344" y="270" width="210" height="250" as="geometry" />
        </mxCell>
        <mxCell id="ssqMvPT_EmWD87mpk3u1-14" value="&lt;b&gt;user_id (serial)&lt;/b&gt;" style="text;strokeColor=none;align=left;fillColor=none;html=1;verticalAlign=middle;whiteSpace=wrap;rounded=0;labelBackgroundColor=none;" parent="1" vertex="1">
          <mxGeometry x="354" y="310" width="190" height="30" as="geometry" />
        </mxCell>
        <mxCell id="ssqMvPT_EmWD87mpk3u1-15" value="Users" style="text;strokeColor=none;align=center;fillColor=none;html=1;verticalAlign=middle;whiteSpace=wrap;rounded=0;labelBackgroundColor=none;" parent="1" vertex="1">
          <mxGeometry x="344" y="270" width="210" height="30" as="geometry" />
        </mxCell>
        <mxCell id="ssqMvPT_EmWD87mpk3u1-16" value="user_FIO (text)" style="text;strokeColor=none;align=left;fillColor=none;html=1;verticalAlign=middle;whiteSpace=wrap;rounded=0;labelBackgroundColor=none;" parent="1" vertex="1">
          <mxGeometry x="354" y="395" width="190" height="30" as="geometry" />
        </mxCell>
        <mxCell id="ssqMvPT_EmWD87mpk3u1-18" value="" style="endArrow=none;html=1;rounded=0;exitX=0;exitY=1;exitDx=0;exitDy=0;entryX=1;entryY=1;entryDx=0;entryDy=0;labelBackgroundColor=none;fontColor=default;" parent="1" source="ssqMvPT_EmWD87mpk3u1-15" target="ssqMvPT_EmWD87mpk3u1-15" edge="1">
          <mxGeometry width="50" height="50" relative="1" as="geometry">
            <mxPoint x="424" y="330" as="sourcePoint" />
            <mxPoint x="474" y="280" as="targetPoint" />
          </mxGeometry>
        </mxCell>
        <mxCell id="ssqMvPT_EmWD87mpk3u1-19" value="tel_number (int)" style="text;strokeColor=none;align=left;fillColor=none;html=1;verticalAlign=middle;whiteSpace=wrap;rounded=0;labelBackgroundColor=none;" parent="1" vertex="1">
          <mxGeometry x="354" y="425" width="190" height="30" as="geometry" />
        </mxCell>
        <mxCell id="ssqMvPT_EmWD87mpk3u1-20" value="email (text)" style="text;strokeColor=none;align=left;fillColor=none;html=1;verticalAlign=middle;whiteSpace=wrap;rounded=0;labelBackgroundColor=none;" parent="1" vertex="1">
          <mxGeometry x="354" y="455" width="190" height="30" as="geometry" />
        </mxCell>
        <mxCell id="ssqMvPT_EmWD87mpk3u1-21" value="user_password (text)" style="text;strokeColor=none;align=left;fillColor=none;html=1;verticalAlign=middle;whiteSpace=wrap;rounded=0;labelBackgroundColor=none;" parent="1" vertex="1">
          <mxGeometry x="354" y="364.5" width="190" height="30" as="geometry" />
        </mxCell>
        <mxCell id="ssqMvPT_EmWD87mpk3u1-22" value="role_id (int)" style="text;strokeColor=none;align=left;fillColor=none;html=1;verticalAlign=middle;whiteSpace=wrap;rounded=0;labelBackgroundColor=none;" parent="1" vertex="1">
          <mxGeometry x="354" y="485" width="190" height="30" as="geometry" />
        </mxCell>
        <mxCell id="ssqMvPT_EmWD87mpk3u1-40" value="" style="rounded=0;whiteSpace=wrap;html=1;labelBackgroundColor=none;" parent="1" vertex="1">
          <mxGeometry x="50" y="372.5" width="210" height="100" as="geometry" />
        </mxCell>
        <mxCell id="ssqMvPT_EmWD87mpk3u1-41" value="&lt;b&gt;admin_id (serial)&lt;/b&gt;" style="text;strokeColor=none;align=left;fillColor=none;html=1;verticalAlign=middle;whiteSpace=wrap;rounded=0;labelBackgroundColor=none;" parent="1" vertex="1">
          <mxGeometry x="60" y="402.5" width="190" height="30" as="geometry" />
        </mxCell>
        <mxCell id="ssqMvPT_EmWD87mpk3u1-42" value="Administrators" style="text;strokeColor=none;align=center;fillColor=none;html=1;verticalAlign=middle;whiteSpace=wrap;rounded=0;labelBackgroundColor=none;" parent="1" vertex="1">
          <mxGeometry x="50" y="372.5" width="210" height="30" as="geometry" />
        </mxCell>
        <mxCell id="ssqMvPT_EmWD87mpk3u1-43" value="" style="endArrow=none;html=1;rounded=0;exitX=0;exitY=1;exitDx=0;exitDy=0;entryX=1;entryY=1;entryDx=0;entryDy=0;labelBackgroundColor=none;fontColor=default;" parent="1" source="ssqMvPT_EmWD87mpk3u1-42" target="ssqMvPT_EmWD87mpk3u1-42" edge="1">
          <mxGeometry width="50" height="50" relative="1" as="geometry">
            <mxPoint x="130" y="432.5" as="sourcePoint" />
            <mxPoint x="180" y="382.5" as="targetPoint" />
          </mxGeometry>
        </mxCell>
        <mxCell id="ssqMvPT_EmWD87mpk3u1-47" value="" style="rounded=0;whiteSpace=wrap;html=1;labelBackgroundColor=none;" parent="1" vertex="1">
          <mxGeometry x="920" y="312.5" width="210" height="130" as="geometry" />
        </mxCell>
        <mxCell id="ssqMvPT_EmWD87mpk3u1-48" value="&lt;b&gt;polis_code (int)&lt;/b&gt;" style="text;strokeColor=none;align=left;fillColor=none;html=1;verticalAlign=middle;whiteSpace=wrap;rounded=0;labelBackgroundColor=none;" parent="1" vertex="1">
          <mxGeometry x="940" y="342.5" width="190" height="30" as="geometry" />
        </mxCell>
        <mxCell id="ssqMvPT_EmWD87mpk3u1-49" value="Polises" style="text;strokeColor=none;align=center;fillColor=none;html=1;verticalAlign=middle;whiteSpace=wrap;rounded=0;labelBackgroundColor=none;" parent="1" vertex="1">
          <mxGeometry x="920" y="312.5" width="210" height="30" as="geometry" />
        </mxCell>
        <mxCell id="ssqMvPT_EmWD87mpk3u1-50" value="" style="endArrow=none;html=1;rounded=0;exitX=0;exitY=1;exitDx=0;exitDy=0;entryX=1;entryY=1;entryDx=0;entryDy=0;labelBackgroundColor=none;fontColor=default;" parent="1" edge="1">
          <mxGeometry width="50" height="50" relative="1" as="geometry">
            <mxPoint x="920" y="342.5" as="sourcePoint" />
            <mxPoint x="1130" y="342.5" as="targetPoint" />
          </mxGeometry>
        </mxCell>
        <mxCell id="ssqMvPT_EmWD87mpk3u1-51" value="polis_type_code (serial)" style="text;strokeColor=none;align=left;fillColor=none;html=1;verticalAlign=middle;whiteSpace=wrap;rounded=0;labelBackgroundColor=none;" parent="1" vertex="1">
          <mxGeometry x="940" y="372.5" width="170" height="30" as="geometry" />
        </mxCell>
        <mxCell id="ssqMvPT_EmWD87mpk3u1-52" value="insuranceCompany_code (serial)" style="text;strokeColor=none;align=left;fillColor=none;html=1;verticalAlign=middle;whiteSpace=wrap;rounded=0;labelBackgroundColor=none;" parent="1" vertex="1">
          <mxGeometry x="930" y="402.5" width="180" height="30" as="geometry" />
        </mxCell>
        <mxCell id="ssqMvPT_EmWD87mpk3u1-54" value="" style="rounded=0;whiteSpace=wrap;html=1;labelBackgroundColor=none;" parent="1" vertex="1">
          <mxGeometry x="970" y="462.5" width="170" height="100" as="geometry" />
        </mxCell>
        <mxCell id="ssqMvPT_EmWD87mpk3u1-55" value="PolisTypes" style="text;strokeColor=none;align=center;fillColor=none;html=1;verticalAlign=middle;whiteSpace=wrap;rounded=0;labelBackgroundColor=none;" parent="1" vertex="1">
          <mxGeometry x="970" y="462.5" width="220" height="30" as="geometry" />
        </mxCell>
        <mxCell id="ssqMvPT_EmWD87mpk3u1-56" value="" style="endArrow=none;html=1;rounded=0;exitX=0;exitY=1;exitDx=0;exitDy=0;entryX=0.792;entryY=1.009;entryDx=0;entryDy=0;labelBackgroundColor=none;fontColor=default;entryPerimeter=0;" parent="1" target="ssqMvPT_EmWD87mpk3u1-55" edge="1">
          <mxGeometry width="50" height="50" relative="1" as="geometry">
            <mxPoint x="970" y="492.5" as="sourcePoint" />
            <mxPoint x="1180" y="492.5" as="targetPoint" />
          </mxGeometry>
        </mxCell>
        <mxCell id="ssqMvPT_EmWD87mpk3u1-57" value="&lt;b&gt;polis_type_code (serial)&lt;/b&gt;" style="text;strokeColor=none;align=left;fillColor=none;html=1;verticalAlign=middle;whiteSpace=wrap;rounded=0;labelBackgroundColor=none;" parent="1" vertex="1">
          <mxGeometry x="980" y="492.5" width="150" height="30" as="geometry" />
        </mxCell>
        <mxCell id="ssqMvPT_EmWD87mpk3u1-58" value="polis_type (text)" style="text;strokeColor=none;align=left;fillColor=none;html=1;verticalAlign=middle;whiteSpace=wrap;rounded=0;labelBackgroundColor=none;" parent="1" vertex="1">
          <mxGeometry x="990" y="527.5" width="140" height="30" as="geometry" />
        </mxCell>
        <mxCell id="ssqMvPT_EmWD87mpk3u1-59" value="" style="rounded=0;whiteSpace=wrap;html=1;labelBackgroundColor=none;" parent="1" vertex="1">
          <mxGeometry x="1300" y="387.5" width="210" height="240" as="geometry" />
        </mxCell>
        <mxCell id="ssqMvPT_EmWD87mpk3u1-60" value="InsuranceCompanies" style="text;strokeColor=none;align=center;fillColor=none;html=1;verticalAlign=middle;whiteSpace=wrap;rounded=0;labelBackgroundColor=none;" parent="1" vertex="1">
          <mxGeometry x="1300" y="387.5" width="210" height="30" as="geometry" />
        </mxCell>
        <mxCell id="ssqMvPT_EmWD87mpk3u1-61" value="" style="endArrow=none;html=1;rounded=0;exitX=0;exitY=1;exitDx=0;exitDy=0;entryX=1;entryY=1;entryDx=0;entryDy=0;labelBackgroundColor=none;fontColor=default;" parent="1" edge="1">
          <mxGeometry width="50" height="50" relative="1" as="geometry">
            <mxPoint x="1300" y="417.5" as="sourcePoint" />
            <mxPoint x="1510" y="417.5" as="targetPoint" />
          </mxGeometry>
        </mxCell>
        <mxCell id="ssqMvPT_EmWD87mpk3u1-62" value="&lt;b&gt;insuranceCompany_code (serial)&lt;/b&gt;" style="text;strokeColor=none;align=left;fillColor=none;html=1;verticalAlign=middle;whiteSpace=wrap;rounded=0;labelBackgroundColor=none;" parent="1" vertex="1">
          <mxGeometry x="1305" y="427.5" width="200" height="30" as="geometry" />
        </mxCell>
        <mxCell id="ssqMvPT_EmWD87mpk3u1-63" value="companyName&amp;nbsp;(text)" style="text;strokeColor=none;align=left;fillColor=none;html=1;verticalAlign=middle;whiteSpace=wrap;rounded=0;labelBackgroundColor=none;" parent="1" vertex="1">
          <mxGeometry x="1310" y="467.5" width="190" height="30" as="geometry" />
        </mxCell>
        <mxCell id="ssqMvPT_EmWD87mpk3u1-64" value="company_address&amp;nbsp;(text)" style="text;strokeColor=none;align=left;fillColor=none;html=1;verticalAlign=middle;whiteSpace=wrap;rounded=0;labelBackgroundColor=none;" parent="1" vertex="1">
          <mxGeometry x="1315" y="497.5" width="190" height="30" as="geometry" />
        </mxCell>
        <mxCell id="ssqMvPT_EmWD87mpk3u1-65" value="INN&amp;nbsp;(int)" style="text;strokeColor=none;align=left;fillColor=none;html=1;verticalAlign=middle;whiteSpace=wrap;rounded=0;labelBackgroundColor=none;" parent="1" vertex="1">
          <mxGeometry x="1310" y="527.5" width="190" height="30" as="geometry" />
        </mxCell>
        <mxCell id="ssqMvPT_EmWD87mpk3u1-66" value="currentAccount (text)" style="text;strokeColor=none;align=left;fillColor=none;html=1;verticalAlign=middle;whiteSpace=wrap;rounded=0;labelBackgroundColor=none;" parent="1" vertex="1">
          <mxGeometry x="1310" y="547.5" width="190" height="30" as="geometry" />
        </mxCell>
        <mxCell id="ssqMvPT_EmWD87mpk3u1-67" value="BIK&amp;nbsp;(text)" style="text;strokeColor=none;align=left;fillColor=none;html=1;verticalAlign=middle;whiteSpace=wrap;rounded=0;labelBackgroundColor=none;" parent="1" vertex="1">
          <mxGeometry x="1310" y="587.5" width="190" height="30" as="geometry" />
        </mxCell>
        <mxCell id="ssqMvPT_EmWD87mpk3u1-68" value="" style="rounded=0;whiteSpace=wrap;html=1;labelBackgroundColor=none;" parent="1" vertex="1">
          <mxGeometry x="90" y="1020" width="210" height="220" as="geometry" />
        </mxCell>
        <mxCell id="ssqMvPT_EmWD87mpk3u1-69" value="AnalyzerWork" style="text;strokeColor=none;align=center;fillColor=none;html=1;verticalAlign=middle;whiteSpace=wrap;rounded=0;labelBackgroundColor=none;" parent="1" vertex="1">
          <mxGeometry x="90" y="1020" width="210" height="30" as="geometry" />
        </mxCell>
        <mxCell id="ssqMvPT_EmWD87mpk3u1-70" value="" style="endArrow=none;html=1;rounded=0;exitX=0;exitY=1;exitDx=0;exitDy=0;entryX=1;entryY=1;entryDx=0;entryDy=0;labelBackgroundColor=none;fontColor=default;" parent="1" edge="1">
          <mxGeometry width="50" height="50" relative="1" as="geometry">
            <mxPoint x="90.00000000000011" y="1050" as="sourcePoint" />
            <mxPoint x="300" y="1050" as="targetPoint" />
          </mxGeometry>
        </mxCell>
        <mxCell id="ssqMvPT_EmWD87mpk3u1-71" value="&lt;b&gt;analyzer_code&amp;nbsp;(serial)&lt;/b&gt;" style="text;strokeColor=none;align=left;fillColor=none;html=1;verticalAlign=middle;whiteSpace=wrap;rounded=0;labelBackgroundColor=none;" parent="1" vertex="1">
          <mxGeometry x="100" y="1060" width="190" height="30" as="geometry" />
        </mxCell>
        <mxCell id="ssqMvPT_EmWD87mpk3u1-73" value="dateOfReceipt (timestamp)" style="text;strokeColor=none;align=left;fillColor=none;html=1;verticalAlign=middle;whiteSpace=wrap;rounded=0;labelBackgroundColor=none;" parent="1" vertex="1">
          <mxGeometry x="100" y="1130" width="190" height="30" as="geometry" />
        </mxCell>
        <mxCell id="ssqMvPT_EmWD87mpk3u1-74" value="dataOfService (timestamp)" style="text;strokeColor=none;align=left;fillColor=none;html=1;verticalAlign=middle;whiteSpace=wrap;rounded=0;labelBackgroundColor=none;" parent="1" vertex="1">
          <mxGeometry x="100" y="1169" width="190" height="30" as="geometry" />
        </mxCell>
        <mxCell id="ssqMvPT_EmWD87mpk3u1-75" value="timeOfService (int)" style="text;strokeColor=none;align=left;fillColor=none;html=1;verticalAlign=middle;whiteSpace=wrap;rounded=0;labelBackgroundColor=none;" parent="1" vertex="1">
          <mxGeometry x="100" y="1200" width="190" height="30" as="geometry" />
        </mxCell>
        <mxCell id="ssqMvPT_EmWD87mpk3u1-77" value="" style="rounded=0;whiteSpace=wrap;html=1;labelBackgroundColor=none;" parent="1" vertex="1">
          <mxGeometry x="50" y="507.5" width="210" height="150" as="geometry" />
        </mxCell>
        <mxCell id="ssqMvPT_EmWD87mpk3u1-78" value="Laborants" style="text;strokeColor=none;align=center;fillColor=none;html=1;verticalAlign=middle;whiteSpace=wrap;rounded=0;labelBackgroundColor=none;" parent="1" vertex="1">
          <mxGeometry x="50" y="507.5" width="210" height="30" as="geometry" />
        </mxCell>
        <mxCell id="ssqMvPT_EmWD87mpk3u1-79" value="" style="endArrow=none;html=1;rounded=0;exitX=0;exitY=1;exitDx=0;exitDy=0;entryX=1;entryY=1;entryDx=0;entryDy=0;labelBackgroundColor=none;fontColor=default;" parent="1" edge="1">
          <mxGeometry width="50" height="50" relative="1" as="geometry">
            <mxPoint x="50.000000000000114" y="537.5" as="sourcePoint" />
            <mxPoint x="259.9999999999999" y="537.5" as="targetPoint" />
          </mxGeometry>
        </mxCell>
        <mxCell id="ssqMvPT_EmWD87mpk3u1-80" value="user_id (serial)" style="text;strokeColor=none;align=left;fillColor=none;html=1;verticalAlign=middle;whiteSpace=wrap;rounded=0;labelBackgroundColor=none;" parent="1" vertex="1">
          <mxGeometry x="60" y="582.5" width="190" height="30" as="geometry" />
        </mxCell>
        <mxCell id="ssqMvPT_EmWD87mpk3u1-81" value="lastEntryDatetime" style="text;strokeColor=none;align=left;fillColor=none;html=1;verticalAlign=middle;whiteSpace=wrap;rounded=0;labelBackgroundColor=none;" parent="1" vertex="1">
          <mxGeometry x="60" y="617.5" width="190" height="30" as="geometry" />
        </mxCell>
        <mxCell id="ssqMvPT_EmWD87mpk3u1-85" value="&lt;b&gt;laborant_id (serial)&lt;/b&gt;" style="text;strokeColor=none;align=left;fillColor=none;html=1;verticalAlign=middle;whiteSpace=wrap;rounded=0;labelBackgroundColor=none;" parent="1" vertex="1">
          <mxGeometry x="60" y="547.5" width="190" height="30" as="geometry" />
        </mxCell>
        <mxCell id="ssqMvPT_EmWD87mpk3u1-86" value="" style="rounded=0;whiteSpace=wrap;html=1;labelBackgroundColor=none;" parent="1" vertex="1">
          <mxGeometry x="650" y="295" width="210" height="190" as="geometry" />
        </mxCell>
        <mxCell id="ssqMvPT_EmWD87mpk3u1-87" value="user_id (serial)" style="text;strokeColor=none;align=left;fillColor=none;html=1;verticalAlign=middle;whiteSpace=wrap;rounded=0;labelBackgroundColor=none;" parent="1" vertex="1">
          <mxGeometry x="660" y="365" width="190" height="30" as="geometry" />
        </mxCell>
        <mxCell id="ssqMvPT_EmWD87mpk3u1-88" value="Patient" style="text;strokeColor=none;align=center;fillColor=none;html=1;verticalAlign=middle;whiteSpace=wrap;rounded=0;labelBackgroundColor=none;" parent="1" vertex="1">
          <mxGeometry x="650" y="295" width="210" height="30" as="geometry" />
        </mxCell>
        <mxCell id="ssqMvPT_EmWD87mpk3u1-89" value="" style="endArrow=none;html=1;rounded=0;exitX=0;exitY=1;exitDx=0;exitDy=0;entryX=1;entryY=1;entryDx=0;entryDy=0;labelBackgroundColor=none;fontColor=default;" parent="1" source="ssqMvPT_EmWD87mpk3u1-88" target="ssqMvPT_EmWD87mpk3u1-88" edge="1">
          <mxGeometry width="50" height="50" relative="1" as="geometry">
            <mxPoint x="730" y="355" as="sourcePoint" />
            <mxPoint x="780" y="305" as="targetPoint" />
          </mxGeometry>
        </mxCell>
        <mxCell id="ssqMvPT_EmWD87mpk3u1-90" value="dateOfBirth (timestamp)" style="text;strokeColor=none;align=left;fillColor=none;html=1;verticalAlign=middle;whiteSpace=wrap;rounded=0;labelBackgroundColor=none;" parent="1" vertex="1">
          <mxGeometry x="660" y="395" width="190" height="30" as="geometry" />
        </mxCell>
        <mxCell id="ssqMvPT_EmWD87mpk3u1-91" value="passport (int)" style="text;strokeColor=none;align=left;fillColor=none;html=1;verticalAlign=middle;whiteSpace=wrap;rounded=0;labelBackgroundColor=none;" parent="1" vertex="1">
          <mxGeometry x="660" y="425" width="190" height="30" as="geometry" />
        </mxCell>
        <mxCell id="ssqMvPT_EmWD87mpk3u1-92" value="polis_code (int)" style="text;strokeColor=none;align=left;fillColor=none;html=1;verticalAlign=middle;whiteSpace=wrap;rounded=0;labelBackgroundColor=none;" parent="1" vertex="1">
          <mxGeometry x="660" y="455" width="190" height="30" as="geometry" />
        </mxCell>
        <mxCell id="ssqMvPT_EmWD87mpk3u1-93" value="&lt;b&gt;patient_id (serial)&lt;/b&gt;" style="text;strokeColor=none;align=left;fillColor=none;html=1;verticalAlign=middle;whiteSpace=wrap;rounded=0;labelBackgroundColor=none;" parent="1" vertex="1">
          <mxGeometry x="660" y="335" width="190" height="30" as="geometry" />
        </mxCell>
        <mxCell id="ssqMvPT_EmWD87mpk3u1-94" value="" style="rounded=0;whiteSpace=wrap;html=1;labelBackgroundColor=none;" parent="1" vertex="1">
          <mxGeometry x="334" y="727.5" width="210" height="190" as="geometry" />
        </mxCell>
        <mxCell id="ssqMvPT_EmWD87mpk3u1-95" value="service_name (text)" style="text;strokeColor=none;align=left;fillColor=none;html=1;verticalAlign=middle;whiteSpace=wrap;rounded=0;labelBackgroundColor=none;" parent="1" vertex="1">
          <mxGeometry x="344" y="797.5" width="190" height="30" as="geometry" />
        </mxCell>
        <mxCell id="ssqMvPT_EmWD87mpk3u1-96" value="Services" style="text;strokeColor=none;align=center;fillColor=none;html=1;verticalAlign=middle;whiteSpace=wrap;rounded=0;labelBackgroundColor=none;" parent="1" vertex="1">
          <mxGeometry x="334" y="727.5" width="210" height="30" as="geometry" />
        </mxCell>
        <mxCell id="ssqMvPT_EmWD87mpk3u1-97" value="" style="endArrow=none;html=1;rounded=0;exitX=0;exitY=1;exitDx=0;exitDy=0;entryX=1;entryY=1;entryDx=0;entryDy=0;labelBackgroundColor=none;fontColor=default;" parent="1" source="ssqMvPT_EmWD87mpk3u1-96" target="ssqMvPT_EmWD87mpk3u1-96" edge="1">
          <mxGeometry width="50" height="50" relative="1" as="geometry">
            <mxPoint x="414" y="787.5" as="sourcePoint" />
            <mxPoint x="464" y="737.5" as="targetPoint" />
          </mxGeometry>
        </mxCell>
        <mxCell id="ssqMvPT_EmWD87mpk3u1-98" value="relise_data&amp;nbsp;(timestamp)" style="text;strokeColor=none;align=left;fillColor=none;html=1;verticalAlign=middle;whiteSpace=wrap;rounded=0;labelBackgroundColor=none;" parent="1" vertex="1">
          <mxGeometry x="344" y="827.5" width="190" height="30" as="geometry" />
        </mxCell>
        <mxCell id="ssqMvPT_EmWD87mpk3u1-99" value="averageDeviation" style="text;strokeColor=none;align=left;fillColor=none;html=1;verticalAlign=middle;whiteSpace=wrap;rounded=0;labelBackgroundColor=none;" parent="1" vertex="1">
          <mxGeometry x="344" y="857.5" width="190" height="30" as="geometry" />
        </mxCell>
        <mxCell id="ssqMvPT_EmWD87mpk3u1-100" value="cost (numeric)" style="text;strokeColor=none;align=left;fillColor=none;html=1;verticalAlign=middle;whiteSpace=wrap;rounded=0;labelBackgroundColor=none;" parent="1" vertex="1">
          <mxGeometry x="344" y="887.5" width="190" height="30" as="geometry" />
        </mxCell>
        <mxCell id="ssqMvPT_EmWD87mpk3u1-101" value="&lt;b&gt;service_code (int)&lt;/b&gt;" style="text;strokeColor=none;align=left;fillColor=none;html=1;verticalAlign=middle;whiteSpace=wrap;rounded=0;labelBackgroundColor=none;" parent="1" vertex="1">
          <mxGeometry x="344" y="767.5" width="180" height="30" as="geometry" />
        </mxCell>
        <mxCell id="ssqMvPT_EmWD87mpk3u1-102" value="" style="rounded=0;whiteSpace=wrap;html=1;labelBackgroundColor=none;" parent="1" vertex="1">
          <mxGeometry x="20" y="710" width="210" height="190" as="geometry" />
        </mxCell>
        <mxCell id="ssqMvPT_EmWD87mpk3u1-103" value="service_code (int)" style="text;strokeColor=none;align=left;fillColor=none;html=1;verticalAlign=middle;whiteSpace=wrap;rounded=0;labelBackgroundColor=none;" parent="1" vertex="1">
          <mxGeometry x="30" y="780" width="170" height="30" as="geometry" />
        </mxCell>
        <mxCell id="ssqMvPT_EmWD87mpk3u1-104" value="ProvidedServices" style="text;strokeColor=none;align=center;fillColor=none;html=1;verticalAlign=middle;whiteSpace=wrap;rounded=0;labelBackgroundColor=none;" parent="1" vertex="1">
          <mxGeometry x="20" y="710" width="210" height="30" as="geometry" />
        </mxCell>
        <mxCell id="ssqMvPT_EmWD87mpk3u1-105" value="" style="endArrow=none;html=1;rounded=0;exitX=0;exitY=1;exitDx=0;exitDy=0;entryX=1;entryY=1;entryDx=0;entryDy=0;labelBackgroundColor=none;fontColor=default;" parent="1" source="ssqMvPT_EmWD87mpk3u1-104" target="ssqMvPT_EmWD87mpk3u1-104" edge="1">
          <mxGeometry width="50" height="50" relative="1" as="geometry">
            <mxPoint x="100" y="770" as="sourcePoint" />
            <mxPoint x="150" y="720" as="targetPoint" />
          </mxGeometry>
        </mxCell>
        <mxCell id="ssqMvPT_EmWD87mpk3u1-106" value="dataofservice (timestamp)" style="text;strokeColor=none;align=left;fillColor=none;html=1;verticalAlign=middle;whiteSpace=wrap;rounded=0;labelBackgroundColor=none;" parent="1" vertex="1">
          <mxGeometry x="30" y="810" width="190" height="30" as="geometry" />
        </mxCell>
        <mxCell id="ssqMvPT_EmWD87mpk3u1-107" value="laborant_id (serial)" style="text;strokeColor=none;align=left;fillColor=none;html=1;verticalAlign=middle;whiteSpace=wrap;rounded=0;labelBackgroundColor=none;" parent="1" vertex="1">
          <mxGeometry x="30" y="840" width="170" height="30" as="geometry" />
        </mxCell>
        <mxCell id="ssqMvPT_EmWD87mpk3u1-109" value="&lt;b&gt;providedService_code (serial)&lt;/b&gt;" style="text;strokeColor=none;align=left;fillColor=none;html=1;verticalAlign=middle;whiteSpace=wrap;rounded=0;labelBackgroundColor=none;" parent="1" vertex="1">
          <mxGeometry x="30" y="750" width="190" height="30" as="geometry" />
        </mxCell>
        <mxCell id="ssqMvPT_EmWD87mpk3u1-110" value="" style="rounded=0;whiteSpace=wrap;html=1;labelBackgroundColor=none;" parent="1" vertex="1">
          <mxGeometry x="610" y="710" width="210" height="150" as="geometry" />
        </mxCell>
        <mxCell id="ssqMvPT_EmWD87mpk3u1-111" value="accountant_id (serial)" style="text;strokeColor=none;align=left;fillColor=none;html=1;verticalAlign=middle;whiteSpace=wrap;rounded=0;labelBackgroundColor=none;" parent="1" vertex="1">
          <mxGeometry x="620" y="780" width="190" height="30" as="geometry" />
        </mxCell>
        <mxCell id="ssqMvPT_EmWD87mpk3u1-112" value="Accountant_Services" style="text;strokeColor=none;align=center;fillColor=none;html=1;verticalAlign=middle;whiteSpace=wrap;rounded=0;labelBackgroundColor=none;" parent="1" vertex="1">
          <mxGeometry x="610" y="710" width="210" height="30" as="geometry" />
        </mxCell>
        <mxCell id="ssqMvPT_EmWD87mpk3u1-113" value="" style="endArrow=none;html=1;rounded=0;exitX=0;exitY=1;exitDx=0;exitDy=0;entryX=1;entryY=1;entryDx=0;entryDy=0;labelBackgroundColor=none;fontColor=default;" parent="1" source="ssqMvPT_EmWD87mpk3u1-112" target="ssqMvPT_EmWD87mpk3u1-112" edge="1">
          <mxGeometry width="50" height="50" relative="1" as="geometry">
            <mxPoint x="690" y="770" as="sourcePoint" />
            <mxPoint x="740" y="720" as="targetPoint" />
          </mxGeometry>
        </mxCell>
        <mxCell id="ssqMvPT_EmWD87mpk3u1-115" value="service_code (int)" style="text;strokeColor=none;align=left;fillColor=none;html=1;verticalAlign=middle;whiteSpace=wrap;rounded=0;labelBackgroundColor=none;" parent="1" vertex="1">
          <mxGeometry x="620" y="820" width="190" height="30" as="geometry" />
        </mxCell>
        <mxCell id="ssqMvPT_EmWD87mpk3u1-117" value="&lt;b&gt;accountantService_id (serial)&lt;/b&gt;" style="text;strokeColor=none;align=left;fillColor=none;html=1;verticalAlign=middle;whiteSpace=wrap;rounded=0;labelBackgroundColor=none;" parent="1" vertex="1">
          <mxGeometry x="620" y="750" width="190" height="30" as="geometry" />
        </mxCell>
        <mxCell id="ssqMvPT_EmWD87mpk3u1-118" value="" style="rounded=0;whiteSpace=wrap;html=1;labelBackgroundColor=none;" parent="1" vertex="1">
          <mxGeometry x="630" y="1070" width="210" height="170" as="geometry" />
        </mxCell>
        <mxCell id="ssqMvPT_EmWD87mpk3u1-119" value="accountant_id (serial)" style="text;strokeColor=none;align=left;fillColor=none;html=1;verticalAlign=middle;whiteSpace=wrap;rounded=0;labelBackgroundColor=none;" parent="1" vertex="1">
          <mxGeometry x="640" y="1140" width="190" height="30" as="geometry" />
        </mxCell>
        <mxCell id="ssqMvPT_EmWD87mpk3u1-120" value="Orders" style="text;strokeColor=none;align=center;fillColor=none;html=1;verticalAlign=middle;whiteSpace=wrap;rounded=0;labelBackgroundColor=none;" parent="1" vertex="1">
          <mxGeometry x="630" y="1070" width="210" height="30" as="geometry" />
        </mxCell>
        <mxCell id="ssqMvPT_EmWD87mpk3u1-121" value="" style="endArrow=none;html=1;rounded=0;exitX=0;exitY=1;exitDx=0;exitDy=0;entryX=1;entryY=1;entryDx=0;entryDy=0;labelBackgroundColor=none;fontColor=default;" parent="1" source="ssqMvPT_EmWD87mpk3u1-120" target="ssqMvPT_EmWD87mpk3u1-120" edge="1">
          <mxGeometry width="50" height="50" relative="1" as="geometry">
            <mxPoint x="710" y="1130" as="sourcePoint" />
            <mxPoint x="760" y="1080" as="targetPoint" />
          </mxGeometry>
        </mxCell>
        <mxCell id="ssqMvPT_EmWD87mpk3u1-122" value="creationDate (timestamp)" style="text;strokeColor=none;align=left;fillColor=none;html=1;verticalAlign=middle;whiteSpace=wrap;rounded=0;labelBackgroundColor=none;" parent="1" vertex="1">
          <mxGeometry x="640" y="1170" width="190" height="30" as="geometry" />
        </mxCell>
        <mxCell id="ssqMvPT_EmWD87mpk3u1-123" value="ordersTime (timestamp)" style="text;strokeColor=none;align=left;fillColor=none;html=1;verticalAlign=middle;whiteSpace=wrap;rounded=0;labelBackgroundColor=none;" parent="1" vertex="1">
          <mxGeometry x="640" y="1200" width="190" height="30" as="geometry" />
        </mxCell>
        <mxCell id="ssqMvPT_EmWD87mpk3u1-124" value="&lt;b&gt;order_id (serial)&lt;/b&gt;" style="text;strokeColor=none;align=left;fillColor=none;html=1;verticalAlign=middle;whiteSpace=wrap;rounded=0;labelBackgroundColor=none;" parent="1" vertex="1">
          <mxGeometry x="640" y="1110" width="190" height="30" as="geometry" />
        </mxCell>
        <mxCell id="ssqMvPT_EmWD87mpk3u1-125" value="" style="rounded=0;whiteSpace=wrap;html=1;labelBackgroundColor=none;" parent="1" vertex="1">
          <mxGeometry x="340" y="557.5" width="210" height="140" as="geometry" />
        </mxCell>
        <mxCell id="ssqMvPT_EmWD87mpk3u1-126" value="laborant_id (serial)" style="text;strokeColor=none;align=left;fillColor=none;html=1;verticalAlign=middle;whiteSpace=wrap;rounded=0;labelBackgroundColor=none;" parent="1" vertex="1">
          <mxGeometry x="350" y="627.5" width="190" height="30" as="geometry" />
        </mxCell>
        <mxCell id="ssqMvPT_EmWD87mpk3u1-127" value="Laborant_services" style="text;strokeColor=none;align=center;fillColor=none;html=1;verticalAlign=middle;whiteSpace=wrap;rounded=0;labelBackgroundColor=none;" parent="1" vertex="1">
          <mxGeometry x="340" y="557.5" width="210" height="30" as="geometry" />
        </mxCell>
        <mxCell id="ssqMvPT_EmWD87mpk3u1-128" value="" style="endArrow=none;html=1;rounded=0;exitX=0;exitY=1;exitDx=0;exitDy=0;entryX=1;entryY=1;entryDx=0;entryDy=0;labelBackgroundColor=none;fontColor=default;" parent="1" source="ssqMvPT_EmWD87mpk3u1-127" target="ssqMvPT_EmWD87mpk3u1-127" edge="1">
          <mxGeometry width="50" height="50" relative="1" as="geometry">
            <mxPoint x="420" y="617.5" as="sourcePoint" />
            <mxPoint x="470" y="567.5" as="targetPoint" />
          </mxGeometry>
        </mxCell>
        <mxCell id="ssqMvPT_EmWD87mpk3u1-129" value="service_code (int)" style="text;strokeColor=none;align=left;fillColor=none;html=1;verticalAlign=middle;whiteSpace=wrap;rounded=0;labelBackgroundColor=none;" parent="1" vertex="1">
          <mxGeometry x="350" y="657.5" width="190" height="30" as="geometry" />
        </mxCell>
        <mxCell id="ssqMvPT_EmWD87mpk3u1-131" value="&lt;b&gt;laborantsService_id (serial)&lt;/b&gt;" style="text;strokeColor=none;align=left;fillColor=none;html=1;verticalAlign=middle;whiteSpace=wrap;rounded=0;labelBackgroundColor=none;" parent="1" vertex="1">
          <mxGeometry x="350" y="597.5" width="190" height="30" as="geometry" />
        </mxCell>
        <mxCell id="ssqMvPT_EmWD87mpk3u1-132" value="" style="rounded=0;whiteSpace=wrap;html=1;labelBackgroundColor=none;" parent="1" vertex="1">
          <mxGeometry x="340" y="1100" width="210" height="140" as="geometry" />
        </mxCell>
        <mxCell id="ssqMvPT_EmWD87mpk3u1-133" value="order_id (serial)" style="text;strokeColor=none;align=left;fillColor=none;html=1;verticalAlign=middle;whiteSpace=wrap;rounded=0;labelBackgroundColor=none;" parent="1" vertex="1">
          <mxGeometry x="360" y="1170" width="170" height="30" as="geometry" />
        </mxCell>
        <mxCell id="ssqMvPT_EmWD87mpk3u1-134" value="OrdersTransaction" style="text;strokeColor=none;align=center;fillColor=none;html=1;verticalAlign=middle;whiteSpace=wrap;rounded=0;labelBackgroundColor=none;" parent="1" vertex="1">
          <mxGeometry x="340" y="1100" width="210" height="30" as="geometry" />
        </mxCell>
        <mxCell id="ssqMvPT_EmWD87mpk3u1-135" value="" style="endArrow=none;html=1;rounded=0;exitX=0;exitY=1;exitDx=0;exitDy=0;entryX=1;entryY=1;entryDx=0;entryDy=0;labelBackgroundColor=none;fontColor=default;" parent="1" source="ssqMvPT_EmWD87mpk3u1-134" target="ssqMvPT_EmWD87mpk3u1-134" edge="1">
          <mxGeometry width="50" height="50" relative="1" as="geometry">
            <mxPoint x="420" y="1160" as="sourcePoint" />
            <mxPoint x="470" y="1110" as="targetPoint" />
          </mxGeometry>
        </mxCell>
        <mxCell id="ssqMvPT_EmWD87mpk3u1-136" value="service_code (int)" style="text;strokeColor=none;align=left;fillColor=none;html=1;verticalAlign=middle;whiteSpace=wrap;rounded=0;labelBackgroundColor=none;" parent="1" vertex="1">
          <mxGeometry x="356.5" y="1200" width="175" height="30" as="geometry" />
        </mxCell>
        <mxCell id="ssqMvPT_EmWD87mpk3u1-138" value="&lt;b&gt;transaction_id (serial)&lt;/b&gt;" style="text;strokeColor=none;align=left;fillColor=none;html=1;verticalAlign=middle;whiteSpace=wrap;rounded=0;labelBackgroundColor=none;" parent="1" vertex="1">
          <mxGeometry x="364" y="1140" width="170" height="30" as="geometry" />
        </mxCell>
        <mxCell id="ssqMvPT_EmWD87mpk3u1-139" value="" style="rounded=0;whiteSpace=wrap;html=1;movable=1;resizable=1;rotatable=1;deletable=1;editable=1;locked=0;connectable=1;labelBackgroundColor=none;" parent="1" vertex="1">
          <mxGeometry x="620" y="505" width="210" height="155" as="geometry" />
        </mxCell>
        <mxCell id="ssqMvPT_EmWD87mpk3u1-140" value="user_id (serial)" style="text;strokeColor=none;align=left;fillColor=none;html=1;verticalAlign=middle;whiteSpace=wrap;rounded=0;movable=1;resizable=1;rotatable=1;deletable=1;editable=1;locked=0;connectable=1;labelBackgroundColor=none;" parent="1" vertex="1">
          <mxGeometry x="630" y="585" width="190" height="30" as="geometry" />
        </mxCell>
        <mxCell id="ssqMvPT_EmWD87mpk3u1-141" value="Accountants" style="text;strokeColor=none;align=center;fillColor=none;html=1;verticalAlign=middle;whiteSpace=wrap;rounded=0;movable=1;resizable=1;rotatable=1;deletable=1;editable=1;locked=0;connectable=1;labelBackgroundColor=none;" parent="1" vertex="1">
          <mxGeometry x="620" y="510" width="210" height="30" as="geometry" />
        </mxCell>
        <mxCell id="ssqMvPT_EmWD87mpk3u1-142" value="" style="endArrow=none;html=1;rounded=0;exitX=0;exitY=1;exitDx=0;exitDy=0;entryX=1;entryY=1;entryDx=0;entryDy=0;movable=1;resizable=1;rotatable=1;deletable=1;editable=1;locked=0;connectable=1;labelBackgroundColor=none;fontColor=default;" parent="1" source="ssqMvPT_EmWD87mpk3u1-141" target="ssqMvPT_EmWD87mpk3u1-141" edge="1">
          <mxGeometry width="50" height="50" relative="1" as="geometry">
            <mxPoint x="700" y="570" as="sourcePoint" />
            <mxPoint x="750" y="520" as="targetPoint" />
          </mxGeometry>
        </mxCell>
        <mxCell id="ssqMvPT_EmWD87mpk3u1-143" value="lastEntryDatetime (timestamp)" style="text;strokeColor=none;align=left;fillColor=none;html=1;verticalAlign=middle;whiteSpace=wrap;rounded=0;movable=1;resizable=1;rotatable=1;deletable=1;editable=1;locked=0;connectable=1;labelBackgroundColor=none;" parent="1" vertex="1">
          <mxGeometry x="630" y="620" width="190" height="30" as="geometry" />
        </mxCell>
        <mxCell id="ssqMvPT_EmWD87mpk3u1-145" value="&lt;b&gt;accountant_id (serial)&lt;/b&gt;" style="text;strokeColor=none;align=left;fillColor=none;html=1;verticalAlign=middle;whiteSpace=wrap;rounded=0;movable=1;resizable=1;rotatable=1;deletable=1;editable=1;locked=0;connectable=1;labelBackgroundColor=none;" parent="1" vertex="1">
          <mxGeometry x="630" y="550" width="190" height="30" as="geometry" />
        </mxCell>
        <mxCell id="ssqMvPT_EmWD87mpk3u1-146" value="" style="edgeStyle=entityRelationEdgeStyle;fontSize=12;html=1;endArrow=ERoneToMany;rounded=1;jumpSize=45;curved=0;labelBackgroundColor=none;fontColor=default;" parent="1" source="ssqMvPT_EmWD87mpk3u1-14" target="ssqMvPT_EmWD87mpk3u1-87" edge="1">
          <mxGeometry width="100" height="100" relative="1" as="geometry">
            <mxPoint x="800" y="540" as="sourcePoint" />
            <mxPoint x="900" y="440" as="targetPoint" />
          </mxGeometry>
        </mxCell>
        <mxCell id="ssqMvPT_EmWD87mpk3u1-147" value="" style="edgeStyle=entityRelationEdgeStyle;fontSize=12;html=1;endArrow=ERoneToMany;rounded=1;jumpSize=45;curved=0;labelBackgroundColor=none;fontColor=default;" parent="1" source="ssqMvPT_EmWD87mpk3u1-14" target="ssqMvPT_EmWD87mpk3u1-140" edge="1">
          <mxGeometry width="100" height="100" relative="1" as="geometry">
            <mxPoint x="800" y="542.5" as="sourcePoint" />
            <mxPoint x="970" y="840" as="targetPoint" />
            <Array as="points">
              <mxPoint x="1140" y="510" />
              <mxPoint x="1140" y="520" />
            </Array>
          </mxGeometry>
        </mxCell>
        <mxCell id="ssqMvPT_EmWD87mpk3u1-148" value="" style="edgeStyle=entityRelationEdgeStyle;fontSize=12;html=1;endArrow=ERoneToMany;rounded=1;jumpSize=45;curved=0;labelBackgroundColor=none;fontColor=default;" parent="1" source="ssqMvPT_EmWD87mpk3u1-14" target="ssqMvPT_EmWD87mpk3u1-149" edge="1">
          <mxGeometry width="100" height="100" relative="1" as="geometry">
            <mxPoint x="800" y="540" as="sourcePoint" />
            <mxPoint x="720" y="370" as="targetPoint" />
            <Array as="points">
              <mxPoint x="1215" y="475" />
              <mxPoint x="830" y="450" />
              <mxPoint x="855" y="435" />
              <mxPoint x="915" y="365" />
              <mxPoint x="1215" y="485" />
            </Array>
          </mxGeometry>
        </mxCell>
        <mxCell id="ssqMvPT_EmWD87mpk3u1-149" value="user_id (serial)" style="text;strokeColor=none;align=left;fillColor=none;html=1;verticalAlign=middle;whiteSpace=wrap;rounded=0;labelBackgroundColor=none;" parent="1" vertex="1">
          <mxGeometry x="60" y="432.5" width="190" height="30" as="geometry" />
        </mxCell>
        <mxCell id="ssqMvPT_EmWD87mpk3u1-151" value="" style="edgeStyle=entityRelationEdgeStyle;fontSize=12;html=1;endArrow=ERoneToMany;rounded=0;jumpSize=45;entryX=0.985;entryY=0.56;entryDx=0;entryDy=0;exitX=0;exitY=0.5;exitDx=0;exitDy=0;entryPerimeter=0;labelBackgroundColor=none;fontColor=default;" parent="1" source="ssqMvPT_EmWD87mpk3u1-101" target="ssqMvPT_EmWD87mpk3u1-103" edge="1">
          <mxGeometry width="100" height="100" relative="1" as="geometry">
            <mxPoint x="360" y="920" as="sourcePoint" />
            <mxPoint x="300" y="985" as="targetPoint" />
            <Array as="points">
              <mxPoint x="620" y="912.5" />
              <mxPoint x="620" y="922.5" />
            </Array>
          </mxGeometry>
        </mxCell>
        <mxCell id="ssqMvPT_EmWD87mpk3u1-152" value="" style="edgeStyle=entityRelationEdgeStyle;fontSize=12;html=1;endArrow=ERoneToMany;rounded=1;jumpSize=45;curved=0;labelBackgroundColor=none;fontColor=default;" parent="1" source="ssqMvPT_EmWD87mpk3u1-85" target="ssqMvPT_EmWD87mpk3u1-107" edge="1">
          <mxGeometry width="100" height="100" relative="1" as="geometry">
            <mxPoint x="280" y="637.5" as="sourcePoint" />
            <mxPoint x="150" y="692.5" as="targetPoint" />
            <Array as="points">
              <mxPoint x="520" y="790" />
              <mxPoint x="520" y="800" />
            </Array>
          </mxGeometry>
        </mxCell>
        <mxCell id="ssqMvPT_EmWD87mpk3u1-153" value="" style="edgeStyle=entityRelationEdgeStyle;fontSize=12;html=1;endArrow=ERoneToMany;rounded=1;entryX=1;entryY=0.5;entryDx=0;entryDy=0;curved=0;labelBackgroundColor=none;fontColor=default;" parent="1" source="ssqMvPT_EmWD87mpk3u1-14" target="ssqMvPT_EmWD87mpk3u1-80" edge="1">
          <mxGeometry width="100" height="100" relative="1" as="geometry">
            <mxPoint x="480" y="670" as="sourcePoint" />
            <mxPoint x="580" y="570" as="targetPoint" />
          </mxGeometry>
        </mxCell>
        <mxCell id="ssqMvPT_EmWD87mpk3u1-154" value="" style="edgeStyle=entityRelationEdgeStyle;fontSize=12;html=1;endArrow=ERoneToMany;rounded=1;curved=0;labelBackgroundColor=none;fontColor=default;" parent="1" source="ssqMvPT_EmWD87mpk3u1-145" target="ssqMvPT_EmWD87mpk3u1-111" edge="1">
          <mxGeometry width="100" height="100" relative="1" as="geometry">
            <mxPoint x="870" y="390" as="sourcePoint" />
            <mxPoint x="870" y="475" as="targetPoint" />
            <Array as="points">
              <mxPoint x="850" y="660" />
              <mxPoint x="830" y="640" />
            </Array>
          </mxGeometry>
        </mxCell>
        <mxCell id="ssqMvPT_EmWD87mpk3u1-155" value="" style="edgeStyle=entityRelationEdgeStyle;fontSize=12;html=1;endArrow=ERoneToMany;rounded=1;jumpSize=45;entryX=0;entryY=0.5;entryDx=0;entryDy=0;exitX=1;exitY=0.5;exitDx=0;exitDy=0;curved=0;labelBackgroundColor=none;fontColor=default;" parent="1" source="ssqMvPT_EmWD87mpk3u1-101" target="ssqMvPT_EmWD87mpk3u1-115" edge="1">
          <mxGeometry width="100" height="100" relative="1" as="geometry">
            <mxPoint x="390" y="770" as="sourcePoint" />
            <mxPoint x="257" y="827" as="targetPoint" />
            <Array as="points">
              <mxPoint x="630" y="922.5" />
              <mxPoint x="630" y="932.5" />
            </Array>
          </mxGeometry>
        </mxCell>
        <mxCell id="ssqMvPT_EmWD87mpk3u1-156" value="" style="edgeStyle=entityRelationEdgeStyle;fontSize=12;html=1;endArrow=ERoneToMany;rounded=1;jumpSize=45;exitX=1;exitY=0.5;exitDx=0;exitDy=0;curved=0;labelBackgroundColor=none;fontColor=default;" parent="1" source="ssqMvPT_EmWD87mpk3u1-101" target="ssqMvPT_EmWD87mpk3u1-129" edge="1">
          <mxGeometry width="100" height="100" relative="1" as="geometry">
            <mxPoint x="570" y="780" as="sourcePoint" />
            <mxPoint x="730" y="1130" as="targetPoint" />
            <Array as="points">
              <mxPoint x="630" y="927.5" />
              <mxPoint x="630" y="937.5" />
            </Array>
          </mxGeometry>
        </mxCell>
        <mxCell id="ssqMvPT_EmWD87mpk3u1-158" value="" style="edgeStyle=entityRelationEdgeStyle;fontSize=12;html=1;endArrow=ERoneToMany;rounded=1;exitX=0;exitY=0.5;exitDx=0;exitDy=0;jumpSize=6;curved=0;labelBackgroundColor=none;fontColor=default;" parent="1" source="ssqMvPT_EmWD87mpk3u1-62" target="ssqMvPT_EmWD87mpk3u1-52" edge="1">
          <mxGeometry width="100" height="100" relative="1" as="geometry">
            <mxPoint x="1210" y="37.5" as="sourcePoint" />
            <mxPoint x="1320" y="417.5" as="targetPoint" />
            <Array as="points">
              <mxPoint x="870" y="582.5" />
              <mxPoint x="1310" y="277.5" />
              <mxPoint x="1410" y="247.5" />
              <mxPoint x="1430" y="257.5" />
              <mxPoint x="1220" y="132.5" />
              <mxPoint x="850" y="562.5" />
              <mxPoint x="1240" y="242.5" />
              <mxPoint x="1240" y="332.5" />
              <mxPoint x="1250" y="342.5" />
              <mxPoint x="1270" y="242.5" />
            </Array>
          </mxGeometry>
        </mxCell>
        <mxCell id="ssqMvPT_EmWD87mpk3u1-162" value="" style="edgeStyle=entityRelationEdgeStyle;fontSize=12;html=1;endArrow=ERoneToMany;rounded=1;entryX=1;entryY=0.5;entryDx=0;entryDy=0;exitX=0;exitY=0.5;exitDx=0;exitDy=0;curved=0;labelBackgroundColor=none;fontColor=default;" parent="1" source="ssqMvPT_EmWD87mpk3u1-124" target="ssqMvPT_EmWD87mpk3u1-133" edge="1">
          <mxGeometry width="100" height="100" relative="1" as="geometry">
            <mxPoint x="640" y="1180" as="sourcePoint" />
            <mxPoint x="540" y="1140" as="targetPoint" />
          </mxGeometry>
        </mxCell>
        <mxCell id="ssqMvPT_EmWD87mpk3u1-163" value="" style="edgeStyle=entityRelationEdgeStyle;fontSize=12;html=1;endArrow=ERoneToMany;rounded=1;jumpSize=45;curved=0;labelBackgroundColor=none;fontColor=default;" parent="1" source="ssqMvPT_EmWD87mpk3u1-101" target="ssqMvPT_EmWD87mpk3u1-136" edge="1">
          <mxGeometry width="100" height="100" relative="1" as="geometry">
            <mxPoint x="625" y="780" as="sourcePoint" />
            <mxPoint x="600" y="1160" as="targetPoint" />
            <Array as="points">
              <mxPoint x="635" y="925" />
              <mxPoint x="635" y="935" />
              <mxPoint x="665" y="965" />
              <mxPoint x="355" y="902.5" />
            </Array>
          </mxGeometry>
        </mxCell>
        <mxCell id="ssqMvPT_EmWD87mpk3u1-164" value="" style="edgeStyle=entityRelationEdgeStyle;fontSize=12;html=1;endArrow=ERoneToMany;rounded=1;curved=0;labelBackgroundColor=none;fontColor=default;" parent="1" source="ssqMvPT_EmWD87mpk3u1-57" target="ssqMvPT_EmWD87mpk3u1-51" edge="1">
          <mxGeometry width="100" height="100" relative="1" as="geometry">
            <mxPoint x="1500" y="627.5" as="sourcePoint" />
            <mxPoint x="1380" y="407.5" as="targetPoint" />
            <Array as="points">
              <mxPoint x="820" y="592.5" />
              <mxPoint x="800" y="572.5" />
            </Array>
          </mxGeometry>
        </mxCell>
        <mxCell id="FehkeuPGVNFmx7j8DQgI-3" value="service_code (int)" style="text;strokeColor=none;align=left;fillColor=none;html=1;verticalAlign=middle;whiteSpace=wrap;rounded=0;labelBackgroundColor=none;" parent="1" vertex="1">
          <mxGeometry x="100" y="1090" width="190" height="30" as="geometry" />
        </mxCell>
        <mxCell id="FehkeuPGVNFmx7j8DQgI-5" value="" style="edgeStyle=entityRelationEdgeStyle;fontSize=12;html=1;endArrow=ERoneToMany;rounded=1;jumpSize=45;curved=0;labelBackgroundColor=none;fontColor=default;" parent="1" source="ssqMvPT_EmWD87mpk3u1-85" target="ssqMvPT_EmWD87mpk3u1-126" edge="1">
          <mxGeometry width="100" height="100" relative="1" as="geometry">
            <mxPoint x="360" y="590" as="sourcePoint" />
            <mxPoint x="280" y="935" as="targetPoint" />
            <Array as="points">
              <mxPoint x="530" y="800" />
              <mxPoint x="530" y="810" />
            </Array>
          </mxGeometry>
        </mxCell>
        <mxCell id="FehkeuPGVNFmx7j8DQgI-7" value="" style="edgeStyle=entityRelationEdgeStyle;fontSize=12;html=1;endArrow=ERone;endFill=1;rounded=0;fontColor=default;labelBackgroundColor=none;" parent="1" source="ssqMvPT_EmWD87mpk3u1-48" target="ssqMvPT_EmWD87mpk3u1-92" edge="1">
          <mxGeometry width="100" height="100" relative="1" as="geometry">
            <mxPoint x="1180" y="885" as="sourcePoint" />
            <mxPoint x="1280" y="785" as="targetPoint" />
            <Array as="points">
              <mxPoint x="1670" y="645" />
            </Array>
          </mxGeometry>
        </mxCell>
        <mxCell id="FehkeuPGVNFmx7j8DQgI-10" value="analyzer_code (serial)" style="text;strokeColor=none;align=left;fillColor=none;html=1;verticalAlign=middle;whiteSpace=wrap;rounded=0;labelBackgroundColor=none;" parent="1" vertex="1">
          <mxGeometry x="30" y="870" width="170" height="30" as="geometry" />
        </mxCell>
        <mxCell id="FehkeuPGVNFmx7j8DQgI-11" value="" style="edgeStyle=entityRelationEdgeStyle;fontSize=12;html=1;endArrow=ERoneToMany;rounded=1;jumpSize=45;labelBackgroundColor=none;fontColor=default;curved=0;" parent="1" source="ssqMvPT_EmWD87mpk3u1-71" target="FehkeuPGVNFmx7j8DQgI-10" edge="1">
          <mxGeometry width="100" height="100" relative="1" as="geometry">
            <mxPoint x="393" y="1130" as="sourcePoint" />
            <mxPoint x="270" y="1222" as="targetPoint" />
            <Array as="points">
              <mxPoint x="623" y="1267.5" />
              <mxPoint x="623" y="1277.5" />
            </Array>
          </mxGeometry>
        </mxCell>
        <mxCell id="FehkeuPGVNFmx7j8DQgI-14" style="edgeStyle=orthogonalEdgeStyle;rounded=0;orthogonalLoop=1;jettySize=auto;html=1;exitX=0.5;exitY=1;exitDx=0;exitDy=0;" parent="1" source="ssqMvPT_EmWD87mpk3u1-139" target="ssqMvPT_EmWD87mpk3u1-139" edge="1">
          <mxGeometry relative="1" as="geometry" />
        </mxCell>
        <mxCell id="FehkeuPGVNFmx7j8DQgI-15" value="" style="rounded=0;whiteSpace=wrap;html=1;movable=1;resizable=1;rotatable=1;deletable=1;editable=1;locked=0;connectable=1;labelBackgroundColor=none;" parent="1" vertex="1">
          <mxGeometry x="970" y="616.81" width="210" height="150" as="geometry" />
        </mxCell>
        <mxCell id="FehkeuPGVNFmx7j8DQgI-17" value="Invoices" style="text;strokeColor=none;align=center;fillColor=none;html=1;verticalAlign=middle;whiteSpace=wrap;rounded=0;movable=1;resizable=1;rotatable=1;deletable=1;editable=1;locked=0;connectable=1;labelBackgroundColor=none;" parent="1" vertex="1">
          <mxGeometry x="970" y="616.81" width="210" height="30" as="geometry" />
        </mxCell>
        <mxCell id="FehkeuPGVNFmx7j8DQgI-18" value="" style="endArrow=none;html=1;rounded=0;exitX=0;exitY=1;exitDx=0;exitDy=0;entryX=1;entryY=1;entryDx=0;entryDy=0;movable=1;resizable=1;rotatable=1;deletable=1;editable=1;locked=0;connectable=1;labelBackgroundColor=none;fontColor=default;" parent="1" source="FehkeuPGVNFmx7j8DQgI-17" target="FehkeuPGVNFmx7j8DQgI-17" edge="1">
          <mxGeometry width="50" height="50" relative="1" as="geometry">
            <mxPoint x="1050" y="676.81" as="sourcePoint" />
            <mxPoint x="1100" y="626.81" as="targetPoint" />
          </mxGeometry>
        </mxCell>
        <mxCell id="FehkeuPGVNFmx7j8DQgI-20" value="accountant_id (serial)" style="text;strokeColor=none;align=left;fillColor=none;html=1;verticalAlign=middle;whiteSpace=wrap;rounded=0;movable=1;resizable=1;rotatable=1;deletable=1;editable=1;locked=0;connectable=1;labelBackgroundColor=none;" parent="1" vertex="1">
          <mxGeometry x="980" y="687.5" width="190" height="30" as="geometry" />
        </mxCell>
        <mxCell id="FehkeuPGVNFmx7j8DQgI-21" style="edgeStyle=orthogonalEdgeStyle;rounded=0;orthogonalLoop=1;jettySize=auto;html=1;exitX=0.5;exitY=1;exitDx=0;exitDy=0;" parent="1" source="FehkeuPGVNFmx7j8DQgI-15" target="FehkeuPGVNFmx7j8DQgI-15" edge="1">
          <mxGeometry relative="1" as="geometry" />
        </mxCell>
        <mxCell id="FehkeuPGVNFmx7j8DQgI-22" value="insuranceCompany_code (serial)" style="text;strokeColor=none;align=left;fillColor=none;html=1;verticalAlign=middle;whiteSpace=wrap;rounded=0;labelBackgroundColor=none;" parent="1" vertex="1">
          <mxGeometry x="975" y="727.5" width="185" height="30" as="geometry" />
        </mxCell>
        <mxCell id="FehkeuPGVNFmx7j8DQgI-23" value="&lt;b&gt;invoices_id (serial)&lt;/b&gt;" style="text;strokeColor=none;align=left;fillColor=none;html=1;verticalAlign=middle;whiteSpace=wrap;rounded=0;movable=1;resizable=1;rotatable=1;deletable=1;editable=1;locked=0;connectable=1;labelBackgroundColor=none;" parent="1" vertex="1">
          <mxGeometry x="980" y="657.5" width="190" height="30" as="geometry" />
        </mxCell>
        <mxCell id="FehkeuPGVNFmx7j8DQgI-24" value="" style="edgeStyle=entityRelationEdgeStyle;fontSize=12;html=1;endArrow=ERoneToMany;rounded=1;curved=0;labelBackgroundColor=none;fontColor=default;" parent="1" source="ssqMvPT_EmWD87mpk3u1-145" target="FehkeuPGVNFmx7j8DQgI-20" edge="1">
          <mxGeometry width="100" height="100" relative="1" as="geometry">
            <mxPoint x="850" y="735" as="sourcePoint" />
            <mxPoint x="840" y="965" as="targetPoint" />
            <Array as="points">
              <mxPoint x="880" y="830" />
              <mxPoint x="860" y="810" />
            </Array>
          </mxGeometry>
        </mxCell>
        <mxCell id="FehkeuPGVNFmx7j8DQgI-25" value="" style="edgeStyle=entityRelationEdgeStyle;fontSize=12;html=1;endArrow=ERoneToMany;rounded=1;jumpSize=6;curved=0;labelBackgroundColor=none;fontColor=default;" parent="1" source="ssqMvPT_EmWD87mpk3u1-62" target="FehkeuPGVNFmx7j8DQgI-22" edge="1">
          <mxGeometry width="100" height="100" relative="1" as="geometry">
            <mxPoint x="1315" y="452.5" as="sourcePoint" />
            <mxPoint x="1120" y="427.5" as="targetPoint" />
            <Array as="points">
              <mxPoint x="880" y="592.5" />
              <mxPoint x="1320" y="287.5" />
              <mxPoint x="1420" y="257.5" />
              <mxPoint x="1440" y="267.5" />
              <mxPoint x="1230" y="142.5" />
              <mxPoint x="860" y="572.5" />
              <mxPoint x="1250" y="252.5" />
              <mxPoint x="1250" y="342.5" />
              <mxPoint x="1260" y="352.5" />
              <mxPoint x="1280" y="252.5" />
            </Array>
          </mxGeometry>
        </mxCell>
        <mxCell id="FehkeuPGVNFmx7j8DQgI-27" value="user_login(text)" style="text;strokeColor=none;align=left;fillColor=none;html=1;verticalAlign=middle;whiteSpace=wrap;rounded=0;labelBackgroundColor=none;" parent="1" vertex="1">
          <mxGeometry x="354" y="335" width="190" height="30" as="geometry" />
        </mxCell>
        <mxCell id="FehkeuPGVNFmx7j8DQgI-28" value="" style="rounded=0;whiteSpace=wrap;html=1;labelBackgroundColor=none;" parent="1" vertex="1">
          <mxGeometry x="50" y="252.5" width="210" height="100" as="geometry" />
        </mxCell>
        <mxCell id="FehkeuPGVNFmx7j8DQgI-29" value="&lt;b&gt;role_id (text)&lt;/b&gt;" style="text;strokeColor=none;align=left;fillColor=none;html=1;verticalAlign=middle;whiteSpace=wrap;rounded=0;labelBackgroundColor=none;" parent="1" vertex="1">
          <mxGeometry x="60" y="282.5" width="190" height="30" as="geometry" />
        </mxCell>
        <mxCell id="FehkeuPGVNFmx7j8DQgI-30" value="Roles" style="text;strokeColor=none;align=center;fillColor=none;html=1;verticalAlign=middle;whiteSpace=wrap;rounded=0;labelBackgroundColor=none;" parent="1" vertex="1">
          <mxGeometry x="50" y="252.5" width="210" height="30" as="geometry" />
        </mxCell>
        <mxCell id="FehkeuPGVNFmx7j8DQgI-31" value="" style="endArrow=none;html=1;rounded=0;exitX=0;exitY=1;exitDx=0;exitDy=0;entryX=1;entryY=1;entryDx=0;entryDy=0;labelBackgroundColor=none;fontColor=default;" parent="1" source="FehkeuPGVNFmx7j8DQgI-30" target="FehkeuPGVNFmx7j8DQgI-30" edge="1">
          <mxGeometry width="50" height="50" relative="1" as="geometry">
            <mxPoint x="130" y="312.5" as="sourcePoint" />
            <mxPoint x="180" y="262.5" as="targetPoint" />
          </mxGeometry>
        </mxCell>
        <mxCell id="FehkeuPGVNFmx7j8DQgI-32" value="role_name (text)" style="text;strokeColor=none;align=left;fillColor=none;html=1;verticalAlign=middle;whiteSpace=wrap;rounded=0;labelBackgroundColor=none;" parent="1" vertex="1">
          <mxGeometry x="60" y="312.5" width="190" height="30" as="geometry" />
        </mxCell>
        <mxCell id="FehkeuPGVNFmx7j8DQgI-33" value="" style="edgeStyle=entityRelationEdgeStyle;fontSize=12;html=1;endArrow=ERoneToMany;rounded=1;curved=0;labelBackgroundColor=none;fontColor=default;" parent="1" source="FehkeuPGVNFmx7j8DQgI-29" target="ssqMvPT_EmWD87mpk3u1-22" edge="1">
          <mxGeometry width="100" height="100" relative="1" as="geometry">
            <mxPoint x="400" y="465" as="sourcePoint" />
            <mxPoint x="300" y="705" as="targetPoint" />
          </mxGeometry>
        </mxCell>
        <mxCell id="FehkeuPGVNFmx7j8DQgI-43" value="" style="edgeStyle=entityRelationEdgeStyle;fontSize=12;html=1;endArrow=ERoneToMany;rounded=1;curved=0;labelBackgroundColor=none;fontColor=default;" parent="1" source="ssqMvPT_EmWD87mpk3u1-145" target="ssqMvPT_EmWD87mpk3u1-119" edge="1">
          <mxGeometry width="100" height="100" relative="1" as="geometry">
            <mxPoint x="830" y="575" as="sourcePoint" />
            <mxPoint x="820" y="805" as="targetPoint" />
            <Array as="points">
              <mxPoint x="860" y="670" />
              <mxPoint x="840" y="650" />
            </Array>
          </mxGeometry>
        </mxCell>
      </root>
    </mxGraphModel>
  </diagram>
</mxfile>
